<svg
 xmlns="http://www.w3.org/2000/svg"
 xmlns:xlink="http://www.w3.org/1999/xlink"
 width="50px" height="40px">
<path fill-rule="evenodd"  fill="rgb(255, 255, 255)"
 d="M49.790,8.807 L49.794,8.809 L42.762,24.495 L42.762,24.495 C42.415,25.268 41.665,25.818 40.781,25.877 L40.781,25.877 L20.532,27.232 L21.702,30.588 L43.750,30.588 C46.339,30.588 48.438,32.695 48.438,35.294 C48.438,37.893 46.339,40.000 43.750,40.000 C41.161,40.000 39.063,37.893 39.063,35.294 L17.188,35.294 C17.188,37.893 15.089,40.000 12.500,40.000 C9.911,40.000 7.812,37.893 7.812,35.294 C7.812,32.695 9.911,30.588 12.500,30.588 L16.736,30.588 L7.712,4.706 L2.344,4.706 C1.049,4.706 0.000,3.653 0.000,2.353 C0.000,1.054 1.049,0.000 2.344,0.000 L9.375,0.000 C10.398,0.000 11.258,0.662 11.578,1.579 L11.587,1.576 L12.952,5.490 L47.656,5.490 C48.951,5.490 50.000,6.544 50.000,7.843 C50.000,8.188 49.922,8.512 49.790,8.807 ZM14.592,10.196 L18.925,22.624 L39.065,21.276 L44.031,10.196 L14.592,10.196 Z"/>
</svg>
