<svg
 xmlns="http://www.w3.org/2000/svg"
 xmlns:xlink="http://www.w3.org/1999/xlink"
 width="8px" height="14px">
<path fill-rule="evenodd"  fill="rgb(40, 200, 198)"
 d="M0.349,1.758 L5.588,6.998 L0.280,12.306 L0.280,12.306 C0.107,12.486 0.000,12.730 0.000,13.000 C0.000,13.552 0.448,14.000 1.000,14.000 C1.270,14.000 1.514,13.893 1.694,13.720 L1.694,13.720 L7.694,7.720 L7.694,7.719 C7.883,7.538 8.000,7.283 8.000,7.000 C8.000,6.999 8.000,6.998 8.000,6.998 C8.000,6.997 8.000,6.996 8.000,6.995 C8.000,6.713 7.883,6.458 7.694,6.276 L7.694,6.275 L1.694,0.276 L1.692,0.278 C1.512,0.106 1.269,-0.000 1.000,-0.000 C0.448,-0.000 0.000,0.448 0.000,1.000 C0.000,1.303 0.135,1.575 0.349,1.758 Z"/>
</svg>
