<svg
 xmlns="http://www.w3.org/2000/svg"
 xmlns:xlink="http://www.w3.org/1999/xlink"
 width="16px" height="16px">
<path fill-rule="evenodd"  fill="rgb(255, 255, 255)"
 d="M8.000,16.000 C3.589,16.000 -0.000,12.411 -0.000,8.000 C-0.000,3.589 3.589,-0.000 8.000,-0.000 C12.411,-0.000 16.000,3.589 16.000,8.000 C16.000,12.411 12.411,16.000 8.000,16.000 ZM8.000,2.000 C4.691,2.000 2.000,4.691 2.000,8.000 C2.000,11.309 4.691,14.000 8.000,14.000 C11.309,14.000 14.000,11.309 14.000,8.000 C14.000,4.691 11.309,2.000 8.000,2.000 ZM8.000,9.000 L5.000,9.000 L5.000,7.000 L8.000,7.000 L8.000,4.000 L12.000,8.000 L8.000,12.000 L8.000,9.000 Z"/>
</svg>
