<svg
 xmlns="http://www.w3.org/2000/svg"
 xmlns:xlink="http://www.w3.org/1999/xlink"
 width="21px" height="22px">
<path fill-rule="evenodd"  fill="rgb(40, 200, 198)"
 d="M10.500,21.158 C4.701,21.158 0.000,16.441 0.000,10.621 C0.000,4.802 4.701,0.084 10.500,0.084 C16.299,0.084 21.000,4.802 21.000,10.621 C21.000,16.441 16.299,21.158 10.500,21.158 ZM10.500,2.060 C5.788,2.060 1.969,5.893 1.969,10.621 C1.969,15.349 5.788,19.182 10.500,19.182 C15.212,19.182 19.031,15.349 19.031,10.621 C19.031,5.893 15.212,2.060 10.500,2.060 ZM14.185,12.270 L11.232,15.563 L11.229,15.560 C11.049,15.761 10.790,15.889 10.500,15.889 C10.210,15.889 9.951,15.761 9.771,15.560 L9.768,15.563 L6.815,12.270 L6.818,12.267 C6.661,12.093 6.563,11.863 6.563,11.609 C6.563,11.063 7.003,10.621 7.547,10.621 C7.837,10.621 8.096,10.750 8.276,10.951 L8.279,10.948 L9.516,12.327 L9.516,6.341 C9.516,5.795 9.956,5.353 10.500,5.353 C11.044,5.353 11.484,5.795 11.484,6.341 L11.484,12.327 L12.721,10.948 L12.724,10.951 C12.904,10.750 13.163,10.621 13.453,10.621 C13.997,10.621 14.437,11.063 14.437,11.609 C14.437,11.863 14.339,12.093 14.182,12.267 L14.185,12.270 Z"/>
</svg>
