<svg
 xmlns="http://www.w3.org/2000/svg"
 xmlns:xlink="http://www.w3.org/1999/xlink"
 width="33px" height="33px">
<path fill-rule="evenodd"  fill="rgb(150, 165, 180)"
 d="M16.500,33.000 C7.387,33.000 -0.000,25.613 -0.000,16.500 C-0.000,7.387 7.387,-0.000 16.500,-0.000 C25.613,-0.000 33.000,7.387 33.000,16.500 C33.000,25.613 25.613,33.000 16.500,33.000 ZM16.500,3.094 C9.096,3.094 3.094,9.096 3.094,16.500 C3.094,23.904 9.096,29.906 16.500,29.906 C23.904,29.906 29.906,23.904 29.906,16.500 C29.906,9.096 23.904,3.094 16.500,3.094 ZM22.290,19.082 L17.650,24.238 L17.646,24.234 C17.362,24.549 16.956,24.750 16.500,24.750 C16.043,24.750 15.637,24.549 15.354,24.234 L15.350,24.238 L10.710,19.082 L10.714,19.078 C10.467,18.804 10.313,18.445 10.313,18.047 C10.313,17.193 11.005,16.500 11.859,16.500 C12.316,16.500 12.722,16.702 13.005,17.016 L13.009,17.012 L14.953,19.172 L14.953,9.797 C14.953,8.943 15.646,8.250 16.500,8.250 C17.354,8.250 18.047,8.943 18.047,9.797 L18.047,19.172 L19.991,17.012 L19.995,17.016 C20.278,16.702 20.684,16.500 21.141,16.500 C21.995,16.500 22.687,17.193 22.687,18.047 C22.687,18.445 22.533,18.804 22.286,19.078 L22.290,19.082 Z"/>
</svg>
